<svg width="60" height="60" viewBox="0 0 60 60" fill="none" xmlns="http://www.w3.org/2000/svg"><path d="M7.935 47.353H12V58.07c0 .488.293.915.732 1.11.16.062.318.098.477.098.305 0 .61-.122.842-.342l12.097-11.584H48.83c3.223 0 6.19-2.027 7.386-5.042a1.203 1.203 0 0 0-.684-1.563 1.203 1.203 0 0 0-1.563.684 5.567 5.567 0 0 1-5.139 3.503H25.66c-.317 0-.61.123-.83.342l-10.4 9.962v-9.083c0-.671-.538-1.208-1.21-1.208H7.936a5.528 5.528 0 0 1-5.518-5.518V14.465a5.528 5.528 0 0 1 5.518-5.517h25.074c.672 0 1.209-.537 1.209-1.209 0-.671-.537-1.208-1.209-1.208H7.935C3.552 6.53 0 10.095 0 14.466v24.952a7.935 7.935 0 0 0 7.935 7.935z" fill="#4F4F4F"/><path d="M31.227 15.772a2.393 2.393 0 0 0-1.904-.952H23.56a2.383 2.383 0 0 0-2.38 2.38v17.591a2.383 2.383 0 0 0 2.38 2.38h5.762c.622 0 1.184-.244 1.61-.634a5.605 5.605 0 0 0 3.944 1.636H51.21c3.76 0 6.152-1.978 6.58-5.408l2.197-13.954c.012-.06.012-.122.012-.183a5.585 5.585 0 0 0-5.579-5.579h-7.996v-5.7c0-2.6-.769-4.48-2.283-5.591C41.75 0 38.478 1 38.332 1.038c-.5.158-.843.622-.843 1.147v6.677c0 5.066-5.92 6.8-6.164 6.873-.05.012-.074.024-.098.037zm-1.941 18.995h-5.701v-17.53h5.7v17.53zm2.417-16.664a.93.93 0 0 0 .256-.036c.33-.086 7.935-2.295 7.935-9.205V3.174c.782-.098 1.953-.098 2.808.537.855.635 1.294 1.855 1.294 3.638v6.897c0 .671.537 1.208 1.209 1.208h9.204a3.161 3.161 0 0 1 3.162 3.077l-2.185 13.88v.036c-.269 2.198-1.673 3.308-4.188 3.308H34.877a3.162 3.162 0 0 1-3.162-3.161v-14.49h-.012z" fill="#68AF55"/></svg>