<svg width="60" height="60" viewBox="0 0 60 60" fill="none" xmlns="http://www.w3.org/2000/svg"><g clip-path="url(#a)"><path d="M32.51 2.51c-7.478 0-14.466 2.95-19.68 8.299a1.215 1.215 0 0 0 .024 1.713 1.215 1.215 0 0 0 1.714-.024c4.76-4.884 11.125-7.564 17.943-7.564 13.818 0 25.066 11.248 25.066 25.066S46.329 55.066 32.51 55.066C18.692 55.066 7.445 43.818 7.445 30v-.991l2.95 2.95c.232.232.55.354.856.354.306 0 .624-.122.857-.355a1.204 1.204 0 0 0 0-1.713L7.09 25.227a1.204 1.204 0 0 0-1.714 0L.358 30.245a1.204 1.204 0 0 0 0 1.713c.233.233.55.355.857.355.306 0 .624-.122.856-.355l2.95-2.95V30c0 15.152 12.325 27.49 27.49 27.49C47.675 57.49 60 45.151 60 30S47.663 2.51 32.51 2.51z" fill="#4F4F4F"/><path d="M32.51 14.86c-4.442 0-8.053 3.61-8.053 8.053v4.162h-2.754c-.673 0-1.211.538-1.211 1.211v13.941c0 .673.538 1.212 1.211 1.212h21.603c.673 0 1.211-.539 1.211-1.212V28.274c0-.673-.538-1.212-1.211-1.212h-2.754v-4.16c.012-4.431-3.599-8.042-8.041-8.042zm-5.63 8.053a5.63 5.63 0 0 1 11.26 0v4.162H26.894v-4.162h-.012zm15.226 6.573v11.517H22.915V29.486h19.191z" fill="#68AF55"/></g><defs><clipPath id="a"><path fill="#fff" d="M0 0h60v60H0z"/></clipPath></defs></svg>