<svg width="60" height="60" viewBox="0 0 60 60" fill="none" xmlns="http://www.w3.org/2000/svg"><g clip-path="url(#a)"><path d="M23.33 32.939v-9.441c0-.404-.208-.784-.538-1.004a3.209 3.209 0 0 1-1.433-2.67V10.03c0-4.2 3.416-7.605 7.604-7.605h2.106c4.2 0 7.604 3.417 7.604 7.605v9.796c0 1.077-.538 2.069-1.432 2.669-.343.22-.539.6-.539 1.004v9.44c0 .637.355 1.2.918 1.482 1.237.6 7.727 3.882 13.702 8.792a3.51 3.51 0 0 1 1.286 2.73v6.711c0 .674.539 1.212 1.212 1.212.674 0 1.213-.538 1.213-1.212v-6.71a5.974 5.974 0 0 0-2.168-4.604c-5.67-4.653-11.767-7.886-13.739-8.878v-8.363a5.607 5.607 0 0 0 1.972-4.273v-9.796C41.098 4.494 36.592 0 31.069 0h-2.106C23.43 0 18.935 4.506 18.935 10.029v9.796c0 1.653.722 3.208 1.971 4.273v8.363c-1.971.992-8.07 4.225-13.739 8.878C5.784 42.465 5 44.143 5 45.943v6.71c0 .674.539 1.212 1.212 1.212.674 0 1.212-.538 1.212-1.212v-6.71a3.51 3.51 0 0 1 1.286-2.73c5.976-4.911 12.465-8.18 13.702-8.793.564-.281.919-.845.919-1.481z" fill="#4F4F4F"/><path d="M37.065 46.8L26.792 57.074l-3.857-3.858a1.205 1.205 0 0 0-1.715 0 1.205 1.205 0 0 0 0 1.715l4.715 4.714c.232.233.55.355.857.355.306 0 .624-.122.857-.355l11.13-11.13a1.205 1.205 0 0 0 0-1.715 1.227 1.227 0 0 0-1.714 0z" fill="#68AF55"/></g><defs><clipPath id="a"><path fill="#fff" d="M0 0h60v60H0z"/></clipPath></defs></svg>