<svg width="60" height="60" viewBox="0 0 60 60" fill="none" xmlns="http://www.w3.org/2000/svg"><path d="M20.878 36.882a5.048 5.048 0 0 0-1.837 3.906v5.424c0 .674.539 1.212 1.212 1.212.674 0 1.212-.538 1.212-1.212v-5.424c0-.796.343-1.53.955-2.033 4.813-3.955 10.041-6.588 11.033-7.077a1.56 1.56 0 0 0 .882-1.409v-7.64c0-.405-.209-.784-.54-1.005a2.354 2.354 0 0 1-1.052-1.959v-7.922a5.931 5.931 0 0 1 5.926-5.927h1.702a5.931 5.931 0 0 1 5.927 5.927v7.922c0 .784-.392 1.519-1.053 1.96-.343.22-.539.6-.539 1.004v7.628c0 .6.343 1.151.882 1.408 1.004.49 6.22 3.123 11.032 7.078.6.502.956 1.237.956 2.032V46.2c0 .673.538 1.212 1.212 1.212.673 0 1.212-.538 1.212-1.212v-5.425a5.067 5.067 0 0 0-1.837-3.906c-4.481-3.685-9.306-6.269-11.032-7.15v-6.515a4.795 4.795 0 0 0 1.591-3.563v-7.923c0-4.604-3.747-8.35-8.35-8.35h-1.703c-4.604 0-8.35 3.746-8.35 8.35v7.923c0 1.371.587 2.657 1.591 3.563v6.514c-1.726.882-6.539 3.478-11.032 7.164z" fill="#68AF55"/><path d="M17.596 11.106h-1.384c-3.87 0-7.028 3.147-7.028 7.029v6.453a4.11 4.11 0 0 0 1.298 3v5.07c-1.506.77-5.34 2.852-8.902 5.779A4.313 4.313 0 0 0 0 41.792v4.42c0 .674.539 1.212 1.212 1.212.674 0 1.212-.538 1.212-1.212v-4.42c0-.576.258-1.114.698-1.482 3.907-3.208 8.131-5.339 8.951-5.743.515-.245.845-.783.845-1.347V27c0-.404-.208-.784-.538-1.004a1.69 1.69 0 0 1-.76-1.408v-6.453a4.614 4.614 0 0 1 4.604-4.604h1.384a4.614 4.614 0 0 1 4.604 4.604v6.453a1.69 1.69 0 0 1-.759 1.408c-.343.22-.539.6-.539 1.004v5.106c0 .674.54 1.212 1.212 1.212.674 0 1.213-.538 1.213-1.212v-4.518a4.11 4.11 0 0 0 1.298-3v-6.453c-.012-3.882-3.16-7.029-7.041-7.029z" fill="#4F4F4F"/></svg>