<svg width="529" height="96" viewBox="0 0 529 96" fill="none" xmlns="http://www.w3.org/2000/svg"><g clip-path="url(#a)"><path d="M0 95.272h25.338V76.22H0v19.05zM63.344 19.05V0H0v19.05h63.344zM0 57.17h47.345V38.12H0v19.05z" fill="#68AF55"/><path d="M86.42 49.976V42.31H70.582v52.398h15.818V65.748a11.84 11.84 0 0 1 4.447-6.498 11.712 11.712 0 0 1 7.516-2.244c1.441.008 2.88.112 4.308.31v-16.3a20.525 20.525 0 0 0-13.99 6.592l-2.263 2.368zM259.259 20.344h-15.818v74.345h15.818V20.344zM311.291 49.302l-2.135-2.094a21.605 21.605 0 0 0-7.075-4.659 21.49 21.49 0 0 0-8.309-1.57c-13.809 0-23.075 11.055-23.075 27.501 0 16.447 9.266 27.502 23.075 27.502a21.456 21.456 0 0 0 8.298-1.517 21.558 21.558 0 0 0 7.086-4.603l2.135-2.076v6.92h15.818V42.309h-15.818v6.994zm-11.945 31.873c-7.655 0-12.668-4.99-12.668-12.75 0-7.758 4.94-12.748 12.668-12.748 7.728 0 12.669 4.99 12.669 12.749 0 7.758-5.085 12.749-12.741 12.749h.072zM374.816 40.979a20.495 20.495 0 0 0-8.36 1.684 20.618 20.618 0 0 0-6.969 4.945l-2.19 2.368V42.31h-15.818v52.398h15.818V67.952c.236-7.613 4.706-12.148 11.963-12.148 6.262 0 10.642 4.9 10.642 11.93v26.973h15.818v-27.21c0-12.093-3.638-26.518-20.904-26.518zM434.867 40.979C417.601 40.979 406 52.034 406 68.48c0 16.447 11.601 27.502 28.867 27.502 15.058 0 25.862-9.617 28.432-18.668v-2.058h-17.175a12.344 12.344 0 0 1-4.8 4.539 12.242 12.242 0 0 1-6.439 1.398c-7.801 0-12.832-4.99-12.832-12.75 0-7.758 5.031-12.748 12.832-12.748a12.242 12.242 0 0 1 6.439 1.398 12.344 12.344 0 0 1 4.8 4.54h17.193v-1.968c-2.95-10.49-15.419-18.686-28.45-18.686zM148.768 77.04a12.955 12.955 0 0 1-4.803 3.695 12.872 12.872 0 0 1-5.947 1.095 11.97 11.97 0 0 1-8.413-2.757 12.117 12.117 0 0 1-4.256-7.806h41.156v-7.158c-1.466-13.805-12.886-23.112-28.433-23.112-17.266 0-28.867 11.055-28.867 27.502 0 16.446 11.601 27.501 28.867 27.501 13.538 0 24.94-6.975 28.433-17.393V77.04h-17.737zM126.507 60.65a12.233 12.233 0 0 1 4.748-5.098A12.12 12.12 0 0 1 138 53.89c5.429 0 9.339 2.278 11.492 6.758l.869 1.821h-24.722l.868-1.821zM214.375 77.04a12.95 12.95 0 0 1-4.804 3.695 12.868 12.868 0 0 1-5.947 1.095c-3.05.191-6.058-.795-8.412-2.757a12.108 12.108 0 0 1-4.256-7.806h41.083v-7.158c-1.466-13.805-12.886-23.112-28.433-23.112-17.266 0-28.867 11.055-28.867 27.502C174.739 84.945 186.34 96 203.606 96c13.538 0 24.958-6.975 28.433-17.393V77.04h-17.664zM192.114 60.65a12.22 12.22 0 0 1 4.748-5.098 12.117 12.117 0 0 1 6.744-1.66c5.43 0 9.339 2.278 11.511 6.758l.868 1.821h-24.74l.869-1.821zM511.224 77.04a12.95 12.95 0 0 1-4.804 3.695 12.868 12.868 0 0 1-5.947 1.095c-3.05.191-6.059-.795-8.412-2.757a12.114 12.114 0 0 1-4.257-7.806h41.084v-7.14c-1.466-13.841-12.905-23.148-28.433-23.148-17.266 0-28.867 11.055-28.867 27.501 0 16.447 11.601 27.502 28.867 27.502 13.538 0 24.958-6.976 28.433-17.394V77.04h-17.664zM488.963 60.65a12.22 12.22 0 0 1 4.748-5.098 12.117 12.117 0 0 1 6.744-1.66c2.373-.179 4.744.371 6.8 1.578a11.798 11.798 0 0 1 4.711 5.18l.868 1.821h-24.74l.869-1.821z" fill="#000"/></g><defs><clipPath id="a"><path fill="#fff" d="M0 0h528.906v96H0z"/></clipPath></defs></svg>