<svg width="52" height="52" viewBox="0 0 52 52" fill="none" xmlns="http://www.w3.org/2000/svg"><path d="M7.28 48.626a.986.986 0 0 0 1.052-.191l6.663-6.377h12.53a4.721 4.721 0 0 0 4.719-4.718v-7.11a.97.97 0 0 0-.968-.967.97.97 0 0 0-.967.967v7.11a2.787 2.787 0 0 1-2.784 2.784H14.602a.986.986 0 0 0-.67.266L8.62 45.47v-4.368a.97.97 0 0 0-.967-.967H4.719a2.787 2.787 0 0 1-2.785-2.785V23.428a2.796 2.796 0 0 1 2.785-2.795h11.403a.97.97 0 0 0 .967-.967.97.97 0 0 0-.967-.967H4.719A4.721 4.721 0 0 0 0 23.418V37.34a4.722 4.722 0 0 0 4.719 4.718h1.976v5.686c0 .382.234.733.585.882z" fill="#fff"/><path d="M36.898 26.829l6.717 6.43a.986.986 0 0 0 1.052.19c.35-.148.585-.499.585-.881v-5.74h1.998a4.755 4.755 0 0 0 4.75-4.75V8.05a4.756 4.756 0 0 0-4.75-4.75H24.262a4.756 4.756 0 0 0-4.75 4.75v14.028a4.755 4.755 0 0 0 4.75 4.75h12.636zm-15.452-4.75V8.05a2.821 2.821 0 0 1 2.816-2.816H47.24a2.821 2.821 0 0 1 2.816 2.816v14.028a2.821 2.821 0 0 1-2.816 2.817h-2.965a.97.97 0 0 0-.967.967v4.442l-5.367-5.133a.967.967 0 0 0-.67-.266H24.262a2.823 2.823 0 0 1-2.816-2.827z" fill="#C5F0B9"/><path d="M35.75 16.223c.256 0 .5-.107.68-.287a.966.966 0 0 0 .288-.68c0-.255-.107-.5-.287-.68a.966.966 0 0 0-.68-.287c-.255 0-.5.106-.68.287a.966.966 0 0 0-.287.68c0 .255.106.5.287.68.18.191.425.287.68.287zM39.343 16.223c.255 0 .5-.107.68-.287a.966.966 0 0 0 .287-.68c0-.255-.106-.5-.287-.68a.966.966 0 0 0-.68-.287c-.255 0-.5.106-.68.287a.966.966 0 0 0-.287.68c0 .255.106.5.287.68.17.191.425.287.68.287zM32.17 16.223c.254 0 .499-.107.68-.287a.966.966 0 0 0 .286-.68c0-.255-.106-.5-.287-.68a.966.966 0 0 0-.68-.287c-.255 0-.5.106-.68.287a.966.966 0 0 0-.287.68c0 .255.106.5.287.68.18.191.425.287.68.287z" fill="#C5F0B9"/></svg>