<svg width="52" height="52" viewBox="0 0 52 52" fill="none" xmlns="http://www.w3.org/2000/svg"><path d="M45.747 9.084H35.59c-.584 0-1.052.468-1.052 1.052 0 .585.468 1.052 1.052 1.052h10.158c1.148 0 2.083.935 2.083 2.083v26.117a2.086 2.086 0 0 1-2.083 2.082H6.264a2.086 2.086 0 0 1-2.083-2.082V13.27c0-1.148.935-2.083 2.083-2.083H16.58c.584 0 1.052-.467 1.052-1.052 0-.584-.468-1.052-1.052-1.052H6.264a4.195 4.195 0 0 0-4.187 4.187v26.117a4.195 4.195 0 0 0 4.187 4.186h18.69v6.322h-8.735c-.584 0-1.051.468-1.051 1.052 0 .584.467 1.052 1.052 1.052h19.56c.585 0 1.053-.468 1.053-1.052 0-.584-.468-1.052-1.052-1.052h-8.734v-6.322h18.69a4.195 4.195 0 0 0 4.186-4.186V13.27a4.179 4.179 0 0 0-4.176-4.187z" fill="#fff"/><path d="M31.934 4.133A4.138 4.138 0 0 0 27.801 0h-3.602a4.138 4.138 0 0 0-4.133 4.133V6.61c0 .064.01.127.021.18-.01.064-.021.117-.021.181v20.528c0 .234.074.457.212.638l4.877 6.407c.202.265.51.414.84.414.33 0 .637-.149.84-.414l4.876-6.407c.138-.181.213-.404.213-.638V6.938a.924.924 0 0 0-.022-.17.82.82 0 0 0 .022-.17V4.133h.01zM22.18 7.661h2.773v18.637H22.18V7.66zm3.825 24.512l-2.88-3.782h5.76l-2.88 3.782zm3.825-5.876h-2.773V7.662h2.773v18.636zm0-20.74h-7.65V4.133c0-1.115.914-2.03 2.03-2.03h3.602c1.115 0 2.029.915 2.029 2.03v1.424h-.01z" fill="#C5F0B9"/></svg>