<svg width="52" height="52" viewBox="0 0 52 52" fill="none" xmlns="http://www.w3.org/2000/svg"><path d="M21.311 39.239H9.101c-.583 0-1.05.467-1.05 1.05s.467 1.05 1.05 1.05H20.41a2.37 2.37 0 0 0 2.227 1.56h6.704a2.37 2.37 0 0 0 2.228-1.56h11.319c.583 0 1.05-.467 1.05-1.05 0-.584-.467-1.05-1.05-1.05h-12.21c-.583 0-1.05.467-1.05 1.05v.233a.28.28 0 0 1-.276.276h-6.704a.28.28 0 0 1-.276-.276v-.233a1.062 1.062 0 0 0-1.06-1.05z" fill="#fff"/><path d="M50.95 39.239h-2.758V15.042c0-.583-.467-1.05-1.05-1.05-.584 0-1.05.467-1.05 1.05V40.29c0 .583.477 1.05 1.06 1.05H49.9v1.443a2.698 2.698 0 0 1-2.695 2.694H4.795A2.698 2.698 0 0 1 2.1 42.782v-1.443h2.748c.583 0 1.05-.467 1.05-1.05V15.042c0-.583-.467-1.05-1.05-1.05-.584 0-1.05.467-1.05 1.05V39.24H1.05c-.583 0-1.05.467-1.05 1.05v2.493a4.803 4.803 0 0 0 4.795 4.795h42.41A4.803 4.803 0 0 0 52 42.782v-2.493c0-.584-.467-1.05-1.05-1.05z" fill="#fff"/><path d="M30.084 11.807l-6.057 6.025-2.111-2.122a1.044 1.044 0 0 0-1.485 0 1.043 1.043 0 0 0 0 1.485l2.843 2.864c.201.202.477.308.742.308.266 0 .53-.106.743-.308l6.81-6.767a1.044 1.044 0 0 0 0-1.485 1.053 1.053 0 0 0-1.485 0z" fill="#C5F0B9"/><path d="M38.963 4.424H13.037a3.857 3.857 0 0 0-3.85 3.85v15.318a3.857 3.857 0 0 0 3.85 3.85h1.093v4.615c0 .86.7 1.549 1.56 1.549.445 0 .869-.191 1.166-.541l4.858-5.622h17.249c2.121 0 3.85-1.73 3.85-3.85V8.273c0-2.121-1.729-3.85-3.85-3.85zm1.75 19.168c0 .965-.785 1.75-1.75 1.75H21.226a1.04 1.04 0 0 0-.795.361l-4.212 4.87v-4.18c0-.584-.466-1.05-1.05-1.05h-2.143c-.965 0-1.75-.786-1.75-1.75V8.273c0-.965.785-1.75 1.75-1.75h25.926c.966 0 1.75.785 1.75 1.75v15.318h.011z" fill="#fff"/></svg>