<svg width="52" height="52" viewBox="0 0 52 52" fill="none" xmlns="http://www.w3.org/2000/svg"><path d="M3.185 31.653h.722c1.02 2.845 2.803 5.446 5.18 7.57 1.87 1.72 2.336 4.012 2.347 4.341v1.742c0 1.22.987 2.208 2.208 2.208h7.05c1.22 0 2.208-.988 2.208-2.209v-.52c1.168.064 2.325.053 3.482-.042v.573c0 1.221.987 2.208 2.208 2.208h2.22c.583 0 1.05-.467 1.05-1.05 0-.585-.467-1.052-1.05-1.052h-2.22a.106.106 0 0 1-.106-.106v-1.741c0-.308-.127-.595-.36-.796a1.08 1.08 0 0 0-.829-.255 22.364 22.364 0 0 1-5.33.074 1.05 1.05 0 0 0-.817.266c-.223.201-.35.488-.35.785v1.657a.106.106 0 0 1-.106.106h-7.05a.106.106 0 0 1-.106-.106v-1.763c-.01-.669-.573-3.61-3.036-5.87-2.315-2.06-3.981-4.608-4.83-7.369a1.048 1.048 0 0 0-1.01-.743H3.186a1.087 1.087 0 0 1-1.083-1.083v-5.266c0-.594.488-1.082 1.083-1.082h1.55c.457 0 .87-.287 1.02-.722.955-2.93 2.834-5.585 5.424-7.676a1.07 1.07 0 0 0 .393-.786c0-.021 0-.042.01-.064.542-1.91.17-3.97-1.072-5.955a.207.207 0 0 1 0-.245.232.232 0 0 1 .223-.106c3.249.404 4.948 1.996 5.797 3.249.265.382.743.552 1.19.414a21.835 21.835 0 0 1 6.603-1.009c8.365 0 15.733 4.64 18.334 11.53.202.541.383 1.104.52 1.667.086.36.16.722.224 1.083.095.573.637.955 1.21.86.573-.096.955-.637.86-1.21-.074-.415-.16-.829-.255-1.232a17.855 17.855 0 0 0-.595-1.9c-2.93-7.708-11.083-12.89-20.32-12.89-2.23 0-4.416.298-6.508.893-1.2-1.487-3.29-3.09-6.805-3.536a2.303 2.303 0 0 0-2.25 1.062 2.31 2.31 0 0 0-.011 2.484c.934 1.487 1.21 2.92.828 4.268 0 .01-.01.032-.01.043-2.538 2.133-4.428 4.767-5.532 7.675h-.828A3.194 3.194 0 0 0 0 23.212v5.266a3.185 3.185 0 0 0 3.185 3.175z" fill="#fff"/><path d="M43.072 26.334a6.044 6.044 0 0 0-6.041 6.04v2.867h-1.837c-.584 0-1.051.467-1.051 1.051v10.17c0 .585.467 1.052 1.051 1.052h15.755c.584 0 1.051-.467 1.051-1.051v-10.17c0-.585-.467-1.052-1.051-1.052h-1.837v-2.866c-.01-3.323-2.718-6.041-6.04-6.041zm-3.94 6.04a3.937 3.937 0 0 1 3.94-3.938 3.937 3.937 0 0 1 3.938 3.939v2.866h-7.877v-2.866zm10.766 4.97v8.068H36.234v-8.069h13.664z" fill="#C5F0B9"/></svg>