<svg width="52" height="52" viewBox="0 0 52 52" fill="none" xmlns="http://www.w3.org/2000/svg"><path d="M16.831 35.938c2.409-1.677 4.542-2.76 5.136-3.046a1.3 1.3 0 0 0 .722-1.157v-5.094c0-.35-.18-.679-.467-.87a1.318 1.318 0 0 1-.594-1.104v-5.285a3.707 3.707 0 0 1 3.703-3.703h1.136a3.707 3.707 0 0 1 3.704 3.704v5.284c0 .446-.223.86-.595 1.104-.297.191-.467.52-.467.87v5.094c0 .488.287.945.722 1.157a39.697 39.697 0 0 1 4.404 2.557c.308.202.616.414.923.637a1.057 1.057 0 0 0 1.465-.255 1.044 1.044 0 0 0-.255-1.464 44.793 44.793 0 0 0-5.168-3.13V27.15a3.442 3.442 0 0 0 1.061-2.484v-5.285c0-3.204-2.6-5.804-5.805-5.804h-1.135a5.806 5.806 0 0 0-5.805 5.805v5.284a3.46 3.46 0 0 0 1.061 2.484v4.085a44.746 44.746 0 0 0-4.956 2.982 1.054 1.054 0 0 0-.265 1.465c.34.477.998.594 1.475.255z" fill="#C5F0B9"/><path d="M0 26c0 .584.467 1.05 1.05 1.05h4.5c.53 10.432 8.957 18.827 19.4 19.304v4.595c0 .584.466 1.051 1.05 1.051.584 0 1.05-.467 1.05-1.05v-4.606c10.358-.584 18.668-8.925 19.198-19.293h4.701C51.533 27.05 52 26.584 52 26c0-.584-.467-1.05-1.05-1.05h-4.702c-.53-10.369-8.84-18.71-19.197-19.294V1.051C27.05.467 26.584 0 26 0c-.584 0-1.05.467-1.05 1.05v4.596c-10.454.477-18.87 8.872-19.4 19.303h-4.5C.468 24.95 0 25.416 0 26zm7.63-.424c.234-9.88 8.33-17.85 18.264-17.85 10.081 0 18.274 8.203 18.274 18.274 0 10.082-8.203 18.274-18.274 18.274-9.933 0-18.04-7.97-18.264-17.85.053-.127.096-.275.096-.424a.957.957 0 0 0-.096-.424z" fill="#fff"/></svg>